<svg width="1440" height="1024" viewBox="0 0 1440 1024" fill="none" xmlns="http://www.w3.org/2000/svg">
<g clip-path="url(#clip0)">
<rect width="1440" height="1024" fill="#222222"/>
<rect x="1" width="1440" height="1024" fill="#0070AD" fill-opacity="0.1"/>
<path fill-rule="evenodd" clip-rule="evenodd" d="M1441 527.961C1440.55 543.867 1440.4 558.73 1440.66 572.362C1440.9 579.392 1440.99 584.602 1441 585.077V527.961ZM1441 585.105C1428.4 509.119 1401.85 368.785 1204.69 368.785C1062.71 368.785 983.263 499.57 895.328 644.333C849.828 719.236 802.055 797.882 742.169 864.089C686.701 925.398 619.985 975.701 538.883 1002.35C496.515 1016.58 454.158 1023.8 411.812 1024H1441V585.105ZM408.227 1024C360.574 1023.78 312.934 1014.66 265.307 996.652C108.075 933.025 1.00005 774.49 1.00005 604.947C1.00003 604.947 1.00002 604.947 1 604.947V1024H408.227Z" fill="#12ABDB" fill-opacity="0.05"/>
</g>
<defs>
<clipPath id="clip0">
<rect width="1440" height="1024" fill="white"/>
</clipPath>
</defs>
</svg>
