<svg width="34" height="32" viewBox="0 0 34 32" fill="none" xmlns="http://www.w3.org/2000/svg">
<path fill-rule="evenodd" clip-rule="evenodd" d="M26.4259 25.8707C30.6752 25.8707 33.9567 22.4079 33.9989 18.3022C33.7037 16.5093 33.0756 13.1924 28.4217 13.1924C23.3335 13.1924 21.6454 20.3049 17.5021 24.8893C17.1659 27.4973 14.7004 29.8305 11.6172 30.2214C12.374 31.0125 14.0519 31.4376 16.0557 31.4376C19.7259 31.4376 24.169 30.3332 26.4931 28.0387C23.3928 28.0786 21.3981 26.0861 21.2009 23.3243C22.7134 25.1572 24.4232 25.8707 26.4259 25.8707Z" fill="#12ABDB"/>
<path fill-rule="evenodd" clip-rule="evenodd" d="M33.9921 18.0002C33.8997 13.2277 31.628 9.20071 28.1276 5.98639C25.4695 3.55855 22.3111 1.71544 18.9999 0.327131C18.7334 0.214562 18.4656 0.105509 18.1963 0L18.1951 0C14.1179 4.88417 0 8.52935 0 18.7696C0 22.7727 2.52816 26.5159 6.24059 28.0182C8.39259 28.832 10.5457 28.8765 12.7 28.1527C14.6149 27.5235 16.1902 26.3358 17.4998 24.8882C21.6465 20.3038 23.3335 13.1935 28.4205 13.1935C33.0756 13.1935 33.7025 16.507 34 18.3011C34 18.2966 33.9978 18.1712 33.9921 18.0002Z" fill="#0070AD"/>
</svg>
